<mxfile host="Electron" modified="2023-12-29T01:21:57.126Z" agent="Mozilla/5.0 (Windows NT 10.0; Win64; x64) AppleWebKit/537.36 (KHTML, like Gecko) draw.io/21.2.8 Chrome/112.0.5615.165 Electron/24.2.0 Safari/537.36" etag="x1OX7dWCH57uz_bN_CwB" version="21.2.8" type="device">
  <diagram name="Page-1" id="j64s5UediX2lLyxUspab">
    <mxGraphModel dx="1048" dy="637" grid="1" gridSize="10" guides="1" tooltips="1" connect="1" arrows="1" fold="1" page="1" pageScale="1" pageWidth="827" pageHeight="1169" math="0" shadow="0">
      <root>
        <mxCell id="0" />
        <mxCell id="1" parent="0" />
        <mxCell id="hvlWYNChEwyAFai_8jcA-1" value="&lt;b&gt;&lt;font style=&quot;font-size: 16px;&quot; face=&quot;Verdana&quot;&gt;3&lt;/font&gt;&lt;/b&gt;" style="ellipse;whiteSpace=wrap;html=1;aspect=fixed;" vertex="1" parent="1">
          <mxGeometry x="261" y="350" width="40" height="40" as="geometry" />
        </mxCell>
        <mxCell id="hvlWYNChEwyAFai_8jcA-2" value="&lt;b&gt;&lt;font style=&quot;font-size: 16px;&quot; face=&quot;Verdana&quot;&gt;4&lt;/font&gt;&lt;/b&gt;" style="ellipse;whiteSpace=wrap;html=1;aspect=fixed;" vertex="1" parent="1">
          <mxGeometry x="325.14" y="280" width="40" height="40" as="geometry" />
        </mxCell>
        <mxCell id="hvlWYNChEwyAFai_8jcA-3" value="" style="endArrow=classic;html=1;rounded=0;exitX=0;exitY=1;exitDx=0;exitDy=0;entryX=1;entryY=0;entryDx=0;entryDy=0;" edge="1" parent="1" source="hvlWYNChEwyAFai_8jcA-2" target="hvlWYNChEwyAFai_8jcA-1">
          <mxGeometry width="50" height="50" relative="1" as="geometry">
            <mxPoint x="505.14" y="520" as="sourcePoint" />
            <mxPoint x="289.28213562373105" y="355.85786437626894" as="targetPoint" />
          </mxGeometry>
        </mxCell>
        <mxCell id="hvlWYNChEwyAFai_8jcA-4" value="&lt;b&gt;&lt;font style=&quot;font-size: 16px;&quot; face=&quot;Verdana&quot;&gt;6&lt;/font&gt;&lt;/b&gt;" style="ellipse;whiteSpace=wrap;html=1;aspect=fixed;" vertex="1" parent="1">
          <mxGeometry x="391" y="350" width="40" height="40" as="geometry" />
        </mxCell>
        <mxCell id="hvlWYNChEwyAFai_8jcA-5" value="" style="endArrow=classic;html=1;rounded=0;exitX=1;exitY=1;exitDx=0;exitDy=0;entryX=0;entryY=0;entryDx=0;entryDy=0;" edge="1" parent="1" source="hvlWYNChEwyAFai_8jcA-2" target="hvlWYNChEwyAFai_8jcA-4">
          <mxGeometry width="50" height="50" relative="1" as="geometry">
            <mxPoint x="505.14" y="520" as="sourcePoint" />
            <mxPoint x="400.9978643762689" y="355.85786437626894" as="targetPoint" />
          </mxGeometry>
        </mxCell>
        <mxCell id="hvlWYNChEwyAFai_8jcA-6" value="&lt;b&gt;&lt;font style=&quot;font-size: 16px;&quot; face=&quot;Verdana&quot;&gt;5&lt;/font&gt;&lt;/b&gt;" style="ellipse;whiteSpace=wrap;html=1;aspect=fixed;" vertex="1" parent="1">
          <mxGeometry x="341" y="410" width="40" height="40" as="geometry" />
        </mxCell>
        <mxCell id="hvlWYNChEwyAFai_8jcA-7" value="" style="endArrow=classic;html=1;rounded=0;exitX=0;exitY=1;exitDx=0;exitDy=0;entryX=1;entryY=0;entryDx=0;entryDy=0;" edge="1" parent="1" source="hvlWYNChEwyAFai_8jcA-4" target="hvlWYNChEwyAFai_8jcA-6">
          <mxGeometry width="50" height="50" relative="1" as="geometry">
            <mxPoint x="531" y="520" as="sourcePoint" />
            <mxPoint x="581" y="470" as="targetPoint" />
          </mxGeometry>
        </mxCell>
        <mxCell id="hvlWYNChEwyAFai_8jcA-8" value="&lt;b&gt;&lt;font style=&quot;font-size: 16px;&quot; face=&quot;Verdana&quot;&gt;7&lt;/font&gt;&lt;/b&gt;" style="ellipse;whiteSpace=wrap;html=1;aspect=fixed;" vertex="1" parent="1">
          <mxGeometry x="441" y="410" width="40" height="40" as="geometry" />
        </mxCell>
        <mxCell id="hvlWYNChEwyAFai_8jcA-9" value="" style="endArrow=classic;html=1;rounded=0;exitX=1;exitY=1;exitDx=0;exitDy=0;entryX=0;entryY=0;entryDx=0;entryDy=0;" edge="1" parent="1" source="hvlWYNChEwyAFai_8jcA-4" target="hvlWYNChEwyAFai_8jcA-8">
          <mxGeometry width="50" height="50" relative="1" as="geometry">
            <mxPoint x="531" y="520" as="sourcePoint" />
            <mxPoint x="581" y="470" as="targetPoint" />
          </mxGeometry>
        </mxCell>
        <mxCell id="hvlWYNChEwyAFai_8jcA-11" value="&lt;b&gt;&lt;font style=&quot;font-size: 16px;&quot; face=&quot;Verdana&quot;&gt;8&lt;/font&gt;&lt;/b&gt;" style="ellipse;whiteSpace=wrap;html=1;aspect=fixed;" vertex="1" parent="1">
          <mxGeometry x="491" y="470" width="40" height="40" as="geometry" />
        </mxCell>
        <mxCell id="hvlWYNChEwyAFai_8jcA-12" value="" style="endArrow=classic;html=1;rounded=0;exitX=1;exitY=1;exitDx=0;exitDy=0;entryX=0;entryY=0;entryDx=0;entryDy=0;" edge="1" parent="1" source="hvlWYNChEwyAFai_8jcA-8" target="hvlWYNChEwyAFai_8jcA-11">
          <mxGeometry width="50" height="50" relative="1" as="geometry">
            <mxPoint x="531" y="520" as="sourcePoint" />
            <mxPoint x="581" y="470" as="targetPoint" />
          </mxGeometry>
        </mxCell>
        <mxCell id="hvlWYNChEwyAFai_8jcA-13" value="" style="endArrow=classic;html=1;rounded=0;dashed=1;strokeWidth=2;" edge="1" parent="1">
          <mxGeometry width="50" height="50" relative="1" as="geometry">
            <mxPoint x="561" y="400" as="sourcePoint" />
            <mxPoint x="621" y="400" as="targetPoint" />
          </mxGeometry>
        </mxCell>
        <mxCell id="hvlWYNChEwyAFai_8jcA-15" value="&lt;font face=&quot;Verdana&quot; style=&quot;font-size: 16px;&quot;&gt;①&lt;/font&gt;" style="text;html=1;align=center;verticalAlign=middle;resizable=0;points=[];autosize=1;strokeColor=none;fillColor=none;" vertex="1" parent="1">
          <mxGeometry x="564" y="372" width="40" height="30" as="geometry" />
        </mxCell>
        <mxCell id="hvlWYNChEwyAFai_8jcA-16" value="&lt;b&gt;&lt;font style=&quot;font-size: 16px;&quot; face=&quot;Verdana&quot;&gt;3&lt;/font&gt;&lt;/b&gt;" style="ellipse;whiteSpace=wrap;html=1;aspect=fixed;" vertex="1" parent="1">
          <mxGeometry x="651" y="416" width="40" height="40" as="geometry" />
        </mxCell>
        <mxCell id="hvlWYNChEwyAFai_8jcA-17" value="&lt;b&gt;&lt;font style=&quot;font-size: 16px;&quot; face=&quot;Verdana&quot;&gt;4&lt;/font&gt;&lt;/b&gt;" style="ellipse;whiteSpace=wrap;html=1;aspect=fixed;" vertex="1" parent="1">
          <mxGeometry x="715.14" y="346" width="40" height="40" as="geometry" />
        </mxCell>
        <mxCell id="hvlWYNChEwyAFai_8jcA-18" value="" style="endArrow=classic;html=1;rounded=0;exitX=0;exitY=1;exitDx=0;exitDy=0;entryX=1;entryY=0;entryDx=0;entryDy=0;" edge="1" parent="1" source="hvlWYNChEwyAFai_8jcA-17" target="hvlWYNChEwyAFai_8jcA-16">
          <mxGeometry width="50" height="50" relative="1" as="geometry">
            <mxPoint x="895.14" y="586" as="sourcePoint" />
            <mxPoint x="679.282135623731" y="421.85786437626894" as="targetPoint" />
          </mxGeometry>
        </mxCell>
        <mxCell id="hvlWYNChEwyAFai_8jcA-19" value="" style="endArrow=classic;html=1;rounded=0;dashed=1;strokeWidth=2;" edge="1" parent="1">
          <mxGeometry width="50" height="50" relative="1" as="geometry">
            <mxPoint x="801" y="401" as="sourcePoint" />
            <mxPoint x="861" y="401" as="targetPoint" />
          </mxGeometry>
        </mxCell>
        <mxCell id="hvlWYNChEwyAFai_8jcA-20" value="&lt;font face=&quot;Verdana&quot; style=&quot;font-size: 16px;&quot;&gt;②&lt;/font&gt;" style="text;html=1;align=center;verticalAlign=middle;resizable=0;points=[];autosize=1;strokeColor=none;fillColor=none;" vertex="1" parent="1">
          <mxGeometry x="804" y="373" width="40" height="30" as="geometry" />
        </mxCell>
        <mxCell id="hvlWYNChEwyAFai_8jcA-21" value="&lt;b&gt;&lt;font style=&quot;font-size: 16px;&quot; face=&quot;Verdana&quot;&gt;3&lt;/font&gt;&lt;/b&gt;" style="ellipse;whiteSpace=wrap;html=1;aspect=fixed;" vertex="1" parent="1">
          <mxGeometry x="896" y="416" width="40" height="40" as="geometry" />
        </mxCell>
        <mxCell id="hvlWYNChEwyAFai_8jcA-22" value="&lt;b&gt;&lt;font style=&quot;font-size: 16px;&quot; face=&quot;Verdana&quot;&gt;4&lt;/font&gt;&lt;/b&gt;" style="ellipse;whiteSpace=wrap;html=1;aspect=fixed;" vertex="1" parent="1">
          <mxGeometry x="960.14" y="346" width="40" height="40" as="geometry" />
        </mxCell>
        <mxCell id="hvlWYNChEwyAFai_8jcA-23" value="" style="endArrow=classic;html=1;rounded=0;exitX=0;exitY=1;exitDx=0;exitDy=0;entryX=1;entryY=0;entryDx=0;entryDy=0;" edge="1" parent="1" source="hvlWYNChEwyAFai_8jcA-22" target="hvlWYNChEwyAFai_8jcA-21">
          <mxGeometry width="50" height="50" relative="1" as="geometry">
            <mxPoint x="1140.1399999999999" y="586" as="sourcePoint" />
            <mxPoint x="924.282135623731" y="421.85786437626894" as="targetPoint" />
          </mxGeometry>
        </mxCell>
        <mxCell id="hvlWYNChEwyAFai_8jcA-24" value="&lt;b&gt;&lt;font style=&quot;font-size: 16px;&quot; face=&quot;Verdana&quot;&gt;5&lt;/font&gt;&lt;/b&gt;" style="ellipse;whiteSpace=wrap;html=1;aspect=fixed;" vertex="1" parent="1">
          <mxGeometry x="1021" y="416" width="40" height="40" as="geometry" />
        </mxCell>
        <mxCell id="hvlWYNChEwyAFai_8jcA-25" value="" style="endArrow=classic;html=1;rounded=0;exitX=1;exitY=1;exitDx=0;exitDy=0;entryX=0;entryY=0;entryDx=0;entryDy=0;" edge="1" parent="1" source="hvlWYNChEwyAFai_8jcA-22" target="hvlWYNChEwyAFai_8jcA-24">
          <mxGeometry width="50" height="50" relative="1" as="geometry">
            <mxPoint x="791" y="440" as="sourcePoint" />
            <mxPoint x="841" y="390" as="targetPoint" />
          </mxGeometry>
        </mxCell>
        <mxCell id="hvlWYNChEwyAFai_8jcA-26" value="&lt;br&gt;" style="endArrow=classic;html=1;rounded=0;dashed=1;strokeWidth=2;" edge="1" parent="1">
          <mxGeometry width="50" height="50" relative="1" as="geometry">
            <mxPoint x="140" y="688" as="sourcePoint" />
            <mxPoint x="200" y="688" as="targetPoint" />
          </mxGeometry>
        </mxCell>
        <mxCell id="hvlWYNChEwyAFai_8jcA-27" value="&lt;font face=&quot;Verdana&quot; style=&quot;font-size: 16px;&quot;&gt;③&lt;/font&gt;" style="text;html=1;align=center;verticalAlign=middle;resizable=0;points=[];autosize=1;strokeColor=none;fillColor=none;" vertex="1" parent="1">
          <mxGeometry x="143" y="660" width="40" height="30" as="geometry" />
        </mxCell>
        <mxCell id="hvlWYNChEwyAFai_8jcA-33" value="&lt;b&gt;&lt;font style=&quot;font-size: 16px;&quot; face=&quot;Verdana&quot;&gt;3&lt;/font&gt;&lt;/b&gt;" style="ellipse;whiteSpace=wrap;html=1;aspect=fixed;" vertex="1" parent="1">
          <mxGeometry x="231" y="655" width="40" height="40" as="geometry" />
        </mxCell>
        <mxCell id="hvlWYNChEwyAFai_8jcA-34" value="&lt;b&gt;&lt;font style=&quot;font-size: 16px;&quot; face=&quot;Verdana&quot;&gt;6&lt;/font&gt;&lt;/b&gt;" style="ellipse;whiteSpace=wrap;html=1;aspect=fixed;" vertex="1" parent="1">
          <mxGeometry x="295.14" y="585" width="40" height="40" as="geometry" />
        </mxCell>
        <mxCell id="hvlWYNChEwyAFai_8jcA-35" value="" style="endArrow=classic;html=1;rounded=0;exitX=0;exitY=1;exitDx=0;exitDy=0;entryX=1;entryY=0;entryDx=0;entryDy=0;" edge="1" parent="1" source="hvlWYNChEwyAFai_8jcA-34" target="hvlWYNChEwyAFai_8jcA-33">
          <mxGeometry width="50" height="50" relative="1" as="geometry">
            <mxPoint x="475.14" y="825" as="sourcePoint" />
            <mxPoint x="259.28213562373105" y="660.8578643762689" as="targetPoint" />
          </mxGeometry>
        </mxCell>
        <mxCell id="hvlWYNChEwyAFai_8jcA-36" value="&lt;b&gt;&lt;font style=&quot;font-size: 16px;&quot; face=&quot;Verdana&quot;&gt;6&lt;/font&gt;&lt;/b&gt;" style="ellipse;whiteSpace=wrap;html=1;aspect=fixed;" vertex="1" parent="1">
          <mxGeometry x="361" y="655" width="40" height="40" as="geometry" />
        </mxCell>
        <mxCell id="hvlWYNChEwyAFai_8jcA-37" value="" style="endArrow=classic;html=1;rounded=0;exitX=1;exitY=1;exitDx=0;exitDy=0;entryX=0;entryY=0;entryDx=0;entryDy=0;" edge="1" parent="1" source="hvlWYNChEwyAFai_8jcA-34" target="hvlWYNChEwyAFai_8jcA-36">
          <mxGeometry width="50" height="50" relative="1" as="geometry">
            <mxPoint x="475.14" y="825" as="sourcePoint" />
            <mxPoint x="370.9978643762689" y="660.8578643762689" as="targetPoint" />
          </mxGeometry>
        </mxCell>
        <mxCell id="hvlWYNChEwyAFai_8jcA-38" value="&lt;b&gt;&lt;font style=&quot;font-size: 16px;&quot; face=&quot;Verdana&quot;&gt;5&lt;/font&gt;&lt;/b&gt;" style="ellipse;whiteSpace=wrap;html=1;aspect=fixed;" vertex="1" parent="1">
          <mxGeometry x="311" y="715" width="40" height="40" as="geometry" />
        </mxCell>
        <mxCell id="hvlWYNChEwyAFai_8jcA-39" value="" style="endArrow=classic;html=1;rounded=0;exitX=0;exitY=1;exitDx=0;exitDy=0;entryX=1;entryY=0;entryDx=0;entryDy=0;" edge="1" parent="1" source="hvlWYNChEwyAFai_8jcA-36" target="hvlWYNChEwyAFai_8jcA-38">
          <mxGeometry width="50" height="50" relative="1" as="geometry">
            <mxPoint x="501" y="825" as="sourcePoint" />
            <mxPoint x="551" y="775" as="targetPoint" />
          </mxGeometry>
        </mxCell>
        <mxCell id="hvlWYNChEwyAFai_8jcA-40" value="&lt;b&gt;&lt;font style=&quot;font-size: 16px;&quot; face=&quot;Verdana&quot;&gt;7&lt;/font&gt;&lt;/b&gt;" style="ellipse;whiteSpace=wrap;html=1;aspect=fixed;" vertex="1" parent="1">
          <mxGeometry x="411" y="715" width="40" height="40" as="geometry" />
        </mxCell>
        <mxCell id="hvlWYNChEwyAFai_8jcA-41" value="" style="endArrow=classic;html=1;rounded=0;exitX=1;exitY=1;exitDx=0;exitDy=0;entryX=0;entryY=0;entryDx=0;entryDy=0;" edge="1" parent="1" source="hvlWYNChEwyAFai_8jcA-36" target="hvlWYNChEwyAFai_8jcA-40">
          <mxGeometry width="50" height="50" relative="1" as="geometry">
            <mxPoint x="501" y="825" as="sourcePoint" />
            <mxPoint x="551" y="775" as="targetPoint" />
          </mxGeometry>
        </mxCell>
        <mxCell id="hvlWYNChEwyAFai_8jcA-42" value="&lt;b&gt;&lt;font style=&quot;font-size: 16px;&quot; face=&quot;Verdana&quot;&gt;8&lt;/font&gt;&lt;/b&gt;" style="ellipse;whiteSpace=wrap;html=1;aspect=fixed;" vertex="1" parent="1">
          <mxGeometry x="461" y="775" width="40" height="40" as="geometry" />
        </mxCell>
        <mxCell id="hvlWYNChEwyAFai_8jcA-43" value="" style="endArrow=classic;html=1;rounded=0;exitX=1;exitY=1;exitDx=0;exitDy=0;entryX=0;entryY=0;entryDx=0;entryDy=0;" edge="1" parent="1" source="hvlWYNChEwyAFai_8jcA-40" target="hvlWYNChEwyAFai_8jcA-42">
          <mxGeometry width="50" height="50" relative="1" as="geometry">
            <mxPoint x="501" y="825" as="sourcePoint" />
            <mxPoint x="551" y="775" as="targetPoint" />
          </mxGeometry>
        </mxCell>
        <mxCell id="hvlWYNChEwyAFai_8jcA-44" value="&lt;br&gt;" style="endArrow=classic;html=1;rounded=0;dashed=1;strokeWidth=2;" edge="1" parent="1">
          <mxGeometry width="50" height="50" relative="1" as="geometry">
            <mxPoint x="519" y="688" as="sourcePoint" />
            <mxPoint x="579" y="688" as="targetPoint" />
          </mxGeometry>
        </mxCell>
        <mxCell id="hvlWYNChEwyAFai_8jcA-45" value="&lt;font face=&quot;Verdana&quot; style=&quot;font-size: 16px;&quot;&gt;④&lt;/font&gt;" style="text;html=1;align=center;verticalAlign=middle;resizable=0;points=[];autosize=1;strokeColor=none;fillColor=none;" vertex="1" parent="1">
          <mxGeometry x="522" y="660" width="40" height="30" as="geometry" />
        </mxCell>
        <mxCell id="hvlWYNChEwyAFai_8jcA-46" value="&lt;b&gt;&lt;font style=&quot;font-size: 16px;&quot; face=&quot;Verdana&quot;&gt;3&lt;/font&gt;&lt;/b&gt;" style="ellipse;whiteSpace=wrap;html=1;aspect=fixed;" vertex="1" parent="1">
          <mxGeometry x="617" y="655" width="40" height="40" as="geometry" />
        </mxCell>
        <mxCell id="hvlWYNChEwyAFai_8jcA-47" value="&lt;b&gt;&lt;font style=&quot;font-size: 16px;&quot; face=&quot;Verdana&quot;&gt;6&lt;/font&gt;&lt;/b&gt;" style="ellipse;whiteSpace=wrap;html=1;aspect=fixed;" vertex="1" parent="1">
          <mxGeometry x="681.14" y="585" width="40" height="40" as="geometry" />
        </mxCell>
        <mxCell id="hvlWYNChEwyAFai_8jcA-48" value="" style="endArrow=classic;html=1;rounded=0;exitX=0;exitY=1;exitDx=0;exitDy=0;entryX=1;entryY=0;entryDx=0;entryDy=0;" edge="1" parent="1" source="hvlWYNChEwyAFai_8jcA-47" target="hvlWYNChEwyAFai_8jcA-46">
          <mxGeometry width="50" height="50" relative="1" as="geometry">
            <mxPoint x="861.14" y="825" as="sourcePoint" />
            <mxPoint x="645.282135623731" y="660.8578643762689" as="targetPoint" />
          </mxGeometry>
        </mxCell>
        <mxCell id="hvlWYNChEwyAFai_8jcA-50" value="" style="endArrow=classic;html=1;rounded=0;exitX=1;exitY=1;exitDx=0;exitDy=0;entryX=0;entryY=0;entryDx=0;entryDy=0;" edge="1" parent="1" source="hvlWYNChEwyAFai_8jcA-47" target="hvlWYNChEwyAFai_8jcA-53">
          <mxGeometry width="50" height="50" relative="1" as="geometry">
            <mxPoint x="861.14" y="825" as="sourcePoint" />
            <mxPoint x="752.8578643762689" y="660.8578643762689" as="targetPoint" />
          </mxGeometry>
        </mxCell>
        <mxCell id="hvlWYNChEwyAFai_8jcA-53" value="&lt;b&gt;&lt;font style=&quot;font-size: 16px;&quot; face=&quot;Verdana&quot;&gt;7&lt;/font&gt;&lt;/b&gt;" style="ellipse;whiteSpace=wrap;html=1;aspect=fixed;" vertex="1" parent="1">
          <mxGeometry x="745" y="657" width="40" height="40" as="geometry" />
        </mxCell>
        <mxCell id="hvlWYNChEwyAFai_8jcA-55" value="&lt;b&gt;&lt;font style=&quot;font-size: 16px;&quot; face=&quot;Verdana&quot;&gt;8&lt;/font&gt;&lt;/b&gt;" style="ellipse;whiteSpace=wrap;html=1;aspect=fixed;" vertex="1" parent="1">
          <mxGeometry x="795" y="717" width="40" height="40" as="geometry" />
        </mxCell>
        <mxCell id="hvlWYNChEwyAFai_8jcA-56" value="" style="endArrow=classic;html=1;rounded=0;exitX=1;exitY=1;exitDx=0;exitDy=0;entryX=0;entryY=0;entryDx=0;entryDy=0;" edge="1" parent="1" source="hvlWYNChEwyAFai_8jcA-53" target="hvlWYNChEwyAFai_8jcA-55">
          <mxGeometry width="50" height="50" relative="1" as="geometry">
            <mxPoint x="835" y="767" as="sourcePoint" />
            <mxPoint x="885" y="717" as="targetPoint" />
          </mxGeometry>
        </mxCell>
        <mxCell id="hvlWYNChEwyAFai_8jcA-58" value="" style="curved=1;endArrow=classic;html=1;rounded=0;dashed=1;strokeWidth=2;" edge="1" parent="1">
          <mxGeometry width="50" height="50" relative="1" as="geometry">
            <mxPoint x="970" y="450" as="sourcePoint" />
            <mxPoint x="660" y="630" as="targetPoint" />
            <Array as="points">
              <mxPoint x="970" y="530" />
              <mxPoint x="650" y="520" />
              <mxPoint x="590" y="620" />
            </Array>
          </mxGeometry>
        </mxCell>
        <mxCell id="hvlWYNChEwyAFai_8jcA-59" value="&lt;font style=&quot;font-size: 16px;&quot;&gt;⑤&lt;/font&gt;" style="text;html=1;align=center;verticalAlign=middle;resizable=0;points=[];autosize=1;strokeColor=none;fillColor=none;" vertex="1" parent="1">
          <mxGeometry x="755" y="490" width="40" height="30" as="geometry" />
        </mxCell>
        <mxCell id="hvlWYNChEwyAFai_8jcA-60" value="" style="endArrow=classic;html=1;rounded=0;dashed=1;strokeWidth=2;" edge="1" parent="1">
          <mxGeometry width="50" height="50" relative="1" as="geometry">
            <mxPoint x="870" y="680" as="sourcePoint" />
            <mxPoint x="930" y="680" as="targetPoint" />
          </mxGeometry>
        </mxCell>
        <mxCell id="hvlWYNChEwyAFai_8jcA-62" value="&lt;b&gt;&lt;font style=&quot;font-size: 16px;&quot; face=&quot;Verdana&quot;&gt;6&lt;/font&gt;&lt;/b&gt;" style="ellipse;whiteSpace=wrap;html=1;aspect=fixed;" vertex="1" parent="1">
          <mxGeometry x="1050" y="591" width="40" height="40" as="geometry" />
        </mxCell>
        <mxCell id="hvlWYNChEwyAFai_8jcA-63" value="" style="endArrow=classic;html=1;rounded=0;exitX=1;exitY=1;exitDx=0;exitDy=0;entryX=0;entryY=0;entryDx=0;entryDy=0;" edge="1" parent="1" source="hvlWYNChEwyAFai_8jcA-62" target="hvlWYNChEwyAFai_8jcA-64">
          <mxGeometry width="50" height="50" relative="1" as="geometry">
            <mxPoint x="1230" y="831" as="sourcePoint" />
            <mxPoint x="1121.717864376269" y="666.8578643762689" as="targetPoint" />
          </mxGeometry>
        </mxCell>
        <mxCell id="hvlWYNChEwyAFai_8jcA-64" value="&lt;b&gt;&lt;font style=&quot;font-size: 16px;&quot; face=&quot;Verdana&quot;&gt;7&lt;/font&gt;&lt;/b&gt;" style="ellipse;whiteSpace=wrap;html=1;aspect=fixed;" vertex="1" parent="1">
          <mxGeometry x="1113.8600000000001" y="657" width="40" height="40" as="geometry" />
        </mxCell>
        <mxCell id="hvlWYNChEwyAFai_8jcA-65" value="&lt;b&gt;&lt;font style=&quot;font-size: 16px;&quot; face=&quot;Verdana&quot;&gt;8&lt;/font&gt;&lt;/b&gt;" style="ellipse;whiteSpace=wrap;html=1;aspect=fixed;" vertex="1" parent="1">
          <mxGeometry x="1163.8600000000001" y="723" width="40" height="40" as="geometry" />
        </mxCell>
        <mxCell id="hvlWYNChEwyAFai_8jcA-66" value="" style="endArrow=classic;html=1;rounded=0;exitX=1;exitY=1;exitDx=0;exitDy=0;entryX=0;entryY=0;entryDx=0;entryDy=0;" edge="1" parent="1" source="hvlWYNChEwyAFai_8jcA-64" target="hvlWYNChEwyAFai_8jcA-65">
          <mxGeometry width="50" height="50" relative="1" as="geometry">
            <mxPoint x="1203.8600000000001" y="773" as="sourcePoint" />
            <mxPoint x="1253.8600000000001" y="723" as="targetPoint" />
          </mxGeometry>
        </mxCell>
        <mxCell id="hvlWYNChEwyAFai_8jcA-67" value="&lt;b&gt;&lt;font style=&quot;font-size: 16px;&quot; face=&quot;Verdana&quot;&gt;3&lt;/font&gt;&lt;/b&gt;" style="ellipse;whiteSpace=wrap;html=1;aspect=fixed;" vertex="1" parent="1">
          <mxGeometry x="925" y="723" width="40" height="40" as="geometry" />
        </mxCell>
        <mxCell id="hvlWYNChEwyAFai_8jcA-68" value="&lt;b&gt;&lt;font style=&quot;font-size: 16px;&quot; face=&quot;Verdana&quot;&gt;4&lt;/font&gt;&lt;/b&gt;" style="ellipse;whiteSpace=wrap;html=1;aspect=fixed;" vertex="1" parent="1">
          <mxGeometry x="989.14" y="653" width="40" height="40" as="geometry" />
        </mxCell>
        <mxCell id="hvlWYNChEwyAFai_8jcA-69" value="" style="endArrow=classic;html=1;rounded=0;exitX=0;exitY=1;exitDx=0;exitDy=0;entryX=1;entryY=0;entryDx=0;entryDy=0;" edge="1" parent="1" source="hvlWYNChEwyAFai_8jcA-68" target="hvlWYNChEwyAFai_8jcA-67">
          <mxGeometry width="50" height="50" relative="1" as="geometry">
            <mxPoint x="1169.1399999999999" y="893" as="sourcePoint" />
            <mxPoint x="953.282135623731" y="728.8578643762689" as="targetPoint" />
          </mxGeometry>
        </mxCell>
        <mxCell id="hvlWYNChEwyAFai_8jcA-70" value="&lt;b&gt;&lt;font style=&quot;font-size: 16px;&quot; face=&quot;Verdana&quot;&gt;5&lt;/font&gt;&lt;/b&gt;" style="ellipse;whiteSpace=wrap;html=1;aspect=fixed;" vertex="1" parent="1">
          <mxGeometry x="1050" y="723" width="40" height="40" as="geometry" />
        </mxCell>
        <mxCell id="hvlWYNChEwyAFai_8jcA-71" value="" style="endArrow=classic;html=1;rounded=0;exitX=1;exitY=1;exitDx=0;exitDy=0;entryX=0;entryY=0;entryDx=0;entryDy=0;" edge="1" parent="1" source="hvlWYNChEwyAFai_8jcA-68" target="hvlWYNChEwyAFai_8jcA-70">
          <mxGeometry width="50" height="50" relative="1" as="geometry">
            <mxPoint x="820" y="747" as="sourcePoint" />
            <mxPoint x="870" y="697" as="targetPoint" />
          </mxGeometry>
        </mxCell>
        <mxCell id="hvlWYNChEwyAFai_8jcA-72" value="" style="endArrow=classic;html=1;rounded=0;exitX=0;exitY=1;exitDx=0;exitDy=0;entryX=1;entryY=0;entryDx=0;entryDy=0;" edge="1" parent="1" source="hvlWYNChEwyAFai_8jcA-62" target="hvlWYNChEwyAFai_8jcA-68">
          <mxGeometry width="50" height="50" relative="1" as="geometry">
            <mxPoint x="830" y="610" as="sourcePoint" />
            <mxPoint x="880" y="560" as="targetPoint" />
          </mxGeometry>
        </mxCell>
      </root>
    </mxGraphModel>
  </diagram>
</mxfile>
